<?xml version="1.0" encoding="UTF-8"?>
<svg version="1.1" xmlns="http://www.w3.org/2000/svg" width="48" height="48">
<path d="M0 0 C0.76691666 -0.00095673 1.53383331 -0.00191345 2.32398987 -0.00289917 C3.94719525 -0.00358012 5.57040335 -0.00173176 7.19360352 0.00244141 C9.6779595 0.00778359 12.16213409 0.00249735 14.64648438 -0.00390625 C16.22265665 -0.00324531 17.79882881 -0.00196382 19.375 0 C20.11882431 -0.00202423 20.86264862 -0.00404846 21.62901306 -0.00613403 C24.7737146 0.00814835 27.24772666 0.13075264 30.25390625 1.1328125 C31.39295944 3.41091889 31.38057615 4.6697762 31.38330078 7.19946289 C31.38645294 8.03695572 31.3896051 8.87444855 31.39285278 9.73731995 C31.39082855 10.64255905 31.38880432 11.54779816 31.38671875 12.48046875 C31.38767548 13.40750107 31.3886322 14.33453339 31.38961792 15.28965759 C31.39029901 17.25080432 31.38844965 19.2119533 31.38427734 21.1730957 C31.37892207 24.18641177 31.38422783 27.19957918 31.390625 30.21289062 C31.38996432 32.11458366 31.38868338 34.01627661 31.38671875 35.91796875 C31.38874298 36.82523209 31.39076721 37.73249542 31.39285278 38.66725159 C31.36886003 45.01785872 31.36886003 45.01785872 30.25390625 46.1328125 C27.81730179 46.23364014 25.40965924 46.27253853 22.97265625 46.265625 C22.24397339 46.26658173 21.51529053 46.26753845 20.76452637 46.26852417 C19.22110915 46.26920585 17.67768908 46.26735238 16.13427734 46.26318359 C13.76393225 46.25783512 11.39377666 46.26312892 9.0234375 46.26953125 C7.52734333 46.26887047 6.03124928 46.2675893 4.53515625 46.265625 C3.82161987 46.26764923 3.1080835 46.26967346 2.3729248 46.27175903 C-2.63114184 46.24776441 -2.63114184 46.24776441 -3.74609375 45.1328125 C-3.83376487 43.06019174 -3.85305248 40.98460956 -3.84375 38.91015625 C-3.84052734 37.65009766 -3.83730469 36.39003906 -3.83398438 35.09179688 C-3.82562778 33.75130141 -3.81716282 32.41080662 -3.80859375 31.0703125 C-3.80358035 29.72591308 -3.79901717 28.3815119 -3.79492188 27.03710938 C-3.78308863 23.73563309 -3.76660346 20.43424447 -3.74609375 17.1328125 C-6.71609375 17.1328125 -9.68609375 17.1328125 -12.74609375 17.1328125 C-12.82711435 15.02927755 -12.88529282 12.92485298 -12.93359375 10.8203125 C-12.96839844 9.64855469 -13.00320313 8.47679687 -13.0390625 7.26953125 C-12.74609375 4.1328125 -12.74609375 4.1328125 -11.359375 2.27734375 C-7.69938804 -0.31920874 -4.33252102 -0.01175845 0 0 Z M-0.74609375 3.1328125 C-0.74609375 16.3328125 -0.74609375 29.5328125 -0.74609375 43.1328125 C8.82390625 43.1328125 18.39390625 43.1328125 28.25390625 43.1328125 C28.27681359 37.5968726 28.29674116 32.06109595 28.30883789 26.52514648 C28.31387869 24.6403752 28.32071123 22.75560785 28.3293457 20.87084961 C28.34142242 18.16779614 28.34713693 15.46479419 28.3515625 12.76171875 C28.35672379 11.91380264 28.36188507 11.06588654 28.36720276 10.192276 C28.3673982 8.17210182 28.31596836 6.15203316 28.25390625 4.1328125 C27.17282176 2.82619755 27.17282176 2.82619755 24.57006836 3.01928711 C22.81835327 3.02714233 22.81835327 3.02714233 21.03125 3.03515625 C19.89679443 3.03765381 18.76233887 3.04015137 17.59350586 3.04272461 C16.14081299 3.05182861 14.68812012 3.06093262 13.19140625 3.0703125 C8.59203125 3.0909375 3.99265625 3.1115625 -0.74609375 3.1328125 Z M-6.74609375 3.1328125 C-7.73609375 3.7928125 -8.72609375 4.4528125 -9.74609375 5.1328125 C-10.10972193 7.34006323 -10.10972193 7.34006323 -9.93359375 9.7578125 C-9.90652344 10.57507813 -9.87945312 11.39234375 -9.8515625 12.234375 C-9.81675781 12.86085938 -9.78195312 13.48734375 -9.74609375 14.1328125 C-7.76609375 14.1328125 -5.78609375 14.1328125 -3.74609375 14.1328125 C-3.66512572 12.67538787 -3.60691601 11.21668443 -3.55859375 9.7578125 C-3.50638672 8.53964844 -3.50638672 8.53964844 -3.453125 7.296875 C-3.54980469 6.58273437 -3.64648438 5.86859375 -3.74609375 5.1328125 C-4.73609375 4.4728125 -5.72609375 3.8128125 -6.74609375 3.1328125 Z " fill="#2E80D5" transform="translate(14.74609375,0.8671875)"/>
<path d="M0 0 C0.33 0 0.66 0 1 0 C1.02886537 4.31248609 1.04675255 8.62494762 1.0625 12.9375 C1.07087891 14.16919922 1.07925781 15.40089844 1.08789062 16.66992188 C1.09111328 17.83974609 1.09433594 19.00957031 1.09765625 20.21484375 C1.10289307 21.29886475 1.10812988 22.38288574 1.11352539 23.49975586 C1 26 1 26 0 27 C-2.43660446 27.10082764 -4.84424701 27.13972603 -7.28125 27.1328125 C-8.00993286 27.13376923 -8.73861572 27.13472595 -9.48937988 27.13571167 C-11.0327971 27.13639335 -12.57621717 27.13453988 -14.11962891 27.13037109 C-16.489974 27.12502262 -18.86012959 27.13031642 -21.23046875 27.13671875 C-22.72656292 27.13605797 -24.22265697 27.1347768 -25.71875 27.1328125 C-26.78905457 27.13584885 -26.78905457 27.13584885 -27.88098145 27.13894653 C-32.88504809 27.11495191 -32.88504809 27.11495191 -34 26 C-34.07258946 23.81360547 -34.08373783 21.62499611 -34.0625 19.4375 C-34.05347656 18.23996094 -34.04445313 17.04242188 -34.03515625 15.80859375 C-34.02355469 14.88175781 -34.01195312 13.95492187 -34 13 C-30.26726836 16.88826213 -31 17.8089243 -31 24 C-21.43 24 -11.86 24 -2 24 C-2.07909306 16.84970177 -2.07909306 16.84970177 -2.18017578 9.69970703 C-2.1851709 8.81138184 -2.19016602 7.92305664 -2.1953125 7.0078125 C-2.20578613 6.09660645 -2.21625977 5.18540039 -2.22705078 4.24658203 C-2 2 -2 2 0 0 Z " fill="#DF3252" transform="translate(45,20)"/>
<path d="M0 0 C3.93748458 -0.02898816 7.87494179 -0.04679464 11.8125 -0.0625 C12.93205078 -0.07087891 14.05160156 -0.07925781 15.20507812 -0.08789062 C16.81479492 -0.09272461 16.81479492 -0.09272461 18.45703125 -0.09765625 C19.9416687 -0.10551147 19.9416687 -0.10551147 21.45629883 -0.11352539 C24 0 24 0 27 1 C28.58035774 4.16071549 28.22575346 7.53274504 28.25 11 C28.270625 11.73734375 28.29125 12.4746875 28.3125 13.234375 C28.328125 15.375 28.328125 15.375 28 19 C27.01 19.66 26.02 20.32 25 21 C24.67 15.39 24.34 9.78 24 4 C22.43507813 3.96261719 20.87015625 3.92523438 19.2578125 3.88671875 C17.213517 3.82107623 15.16924725 3.75462832 13.125 3.6875 C11.57619141 3.65366211 11.57619141 3.65366211 9.99609375 3.61914062 C8.51689453 3.5659668 8.51689453 3.5659668 7.0078125 3.51171875 C6.09660645 3.48553467 5.18540039 3.45935059 4.24658203 3.43237305 C3.50520996 3.28968994 2.76383789 3.14700684 2 3 C1.34 2.01 0.68 1.02 0 0 Z " fill="#3681D4" transform="translate(18,1)"/>
<path d="M0 0 C0.96808594 -0.01417969 1.93617187 -0.02835937 2.93359375 -0.04296875 C5.5625 0.1875 5.5625 0.1875 8.5625 2.1875 C7.5625 3.1875 7.5625 3.1875 4.5 3.25 C3.530625 3.229375 2.56125 3.20875 1.5625 3.1875 C1.5625 4.8375 1.5625 6.4875 1.5625 8.1875 C0.5725 8.6825 0.5725 8.6825 -0.4375 9.1875 C-1.4275 7.5375 -2.4175 5.8875 -3.4375 4.1875 C-4.4275 4.5175 -5.4175 4.8475 -6.4375 5.1875 C-6.7675 8.1575 -7.0975 11.1275 -7.4375 14.1875 C-8.4275 14.5175 -9.4175 14.8475 -10.4375 15.1875 C-10.51864106 13.41742286 -10.57675505 11.64627902 -10.625 9.875 C-10.65980469 8.88886719 -10.69460938 7.90273437 -10.73046875 6.88671875 C-10.4375 4.1875 -10.4375 4.1875 -9.05078125 2.39453125 C-5.96540992 0.08610573 -3.8083183 0.02528764 0 0 Z " fill="#1093EF" transform="translate(12.4375,0.8125)"/>
<path d="M0 0 C3 0 3 0 4.671875 1.21484375 C6.36078776 3.4849412 6.34227994 4.7618037 6.25 7.5625 C6.23453125 8.34753906 6.2190625 9.13257813 6.203125 9.94140625 C6 12 6 12 5 14 C4.34 14 3.68 14 3 14 C3 14.66 3 15.32 3 16 C2.01 16 1.02 16 0 16 C-2.38038118 12.42942822 -3.07414176 9.23431807 -3 5 C-1.75 2 -1.75 2 0 0 Z M0 9 C0.99 10.485 0.99 10.485 2 12 C2 11.01 2 10.02 2 9 C1.34 9 0.68 9 0 9 Z " fill="#616CB1" transform="translate(27,6)"/>
<path d="M0 0 C3.73273164 3.88826213 3 4.8089243 3 11 C7.62 11 12.24 11 17 11 C16.01 12.485 16.01 12.485 15 14 C11.77734375 14.328125 11.77734375 14.328125 7.9375 14.25 C6.66777344 14.23453125 5.39804687 14.2190625 4.08984375 14.203125 C1 14 1 14 0 13 C-0.07258946 10.81360547 -0.08373783 8.62499611 -0.0625 6.4375 C-0.05347656 5.23996094 -0.04445313 4.04242188 -0.03515625 2.80859375 C-0.02355469 1.88175781 -0.01195312 0.95492187 0 0 Z " fill="#AD4A79" transform="translate(11,33)"/>
<path d="M0 0 C7.59 0 15.18 0 23 0 C23.33 0.99 23.66 1.98 24 3 C16.08 3 8.16 3 0 3 C0 2.01 0 1.02 0 0 Z " fill="#955287" transform="translate(17,39)"/>
<path d="M0 0 C7.59 0 15.18 0 23 0 C23.33 0.99 23.66 1.98 24 3 C16.08 3 8.16 3 0 3 C0 2.01 0 1.02 0 0 Z " fill="#8D5387" transform="translate(17,24)"/>
<path d="M0 0 C7.59 0 15.18 0 23 0 C23 0.99 23 1.98 23 3 C15.41 3 7.82 3 0 3 C0 2.01 0 1.02 0 0 Z " fill="#AC4978" transform="translate(17,34)"/>
<path d="M0 0 C7.92 0 15.84 0 24 0 C23.67 0.99 23.34 1.98 23 3 C15.74 3 8.48 3 1 3 C0.67 2.01 0.34 1.02 0 0 Z " fill="#855493" transform="translate(17,30)"/>
<path d="M0 0 C0.99 0 1.98 0 3 0 C4.58035774 3.16071549 4.22575346 6.53274504 4.25 10 C4.2809375 11.10601563 4.2809375 11.10601563 4.3125 12.234375 C4.328125 14.375 4.328125 14.375 4 18 C3.01 18.66 2.02 19.32 1 20 C0.83225597 17.22922802 0.66576064 14.45839073 0.5 11.6875 C0.45230469 10.90181641 0.40460937 10.11613281 0.35546875 9.30664062 C0.31035156 8.54931641 0.26523437 7.79199219 0.21875 7.01171875 C0.17685547 6.31522217 0.13496094 5.61872559 0.09179688 4.90112305 C0.01299029 3.26903034 0 1.63399421 0 0 Z " fill="#845A93" transform="translate(42,2)"/>
<path d="M0 0 C0.33 0 0.66 0 1 0 C1.08069658 2.95887459 1.14034665 5.9155659 1.1875 8.875 C1.22520508 10.13763672 1.22520508 10.13763672 1.26367188 11.42578125 C1.27333984 12.23144531 1.28300781 13.03710938 1.29296875 13.8671875 C1.3086792 14.61081543 1.32438965 15.35444336 1.34057617 16.12060547 C1.17199097 17.05090576 1.17199097 17.05090576 1 18 C0.01 18.66 -0.98 19.32 -2 20 C-2.05379226 17.04142591 -2.09357093 14.08382279 -2.125 11.125 C-2.14175781 10.28324219 -2.15851562 9.44148438 -2.17578125 8.57421875 C-2.18222656 7.76855469 -2.18867187 6.96289062 -2.1953125 6.1328125 C-2.21102295 5.01737061 -2.21102295 5.01737061 -2.22705078 3.87939453 C-2 2 -2 2 0 0 Z " fill="#BC436C" transform="translate(45,20)"/>
<path d="M0 0 C0.33 0 0.66 0 1 0 C1 1.98 1 3.96 1 6 C1.66 6 2.32 6 3 6 C3 10.29 3 14.58 3 19 C2.34 19.33 1.68 19.66 1 20 C-0.05619003 15.71702469 -0.11702092 11.57014354 -0.0625 7.1875 C-0.05798828 6.49462891 -0.05347656 5.80175781 -0.04882812 5.08789062 C-0.03713156 3.39188932 -0.01919924 1.69593297 0 0 Z " fill="#5969B0" transform="translate(11,18)"/>
<path d="M0 0 C0.99 0.33 1.98 0.66 3 1 C3.0270043 2.45823212 3.04639787 3.91660675 3.0625 5.375 C3.07410156 6.18710938 3.08570313 6.99921875 3.09765625 7.8359375 C3 10 3 10 2 12 C1.34 12 0.68 12 0 12 C0 12.66 0 13.32 0 14 C-0.99 14 -1.98 14 -3 14 C-1.80100302 10.9168649 -0.52299523 7.93720508 1 5 C0.34 4.67 -0.32 4.34 -1 4 C-1 1 -1 1 0 0 Z " fill="#7062A2" transform="translate(30,8)"/>
<path d="M0 0 C1.62463842 -0.05395478 3.24978541 -0.09277195 4.875 -0.125 C5.77992187 -0.14820312 6.68484375 -0.17140625 7.6171875 -0.1953125 C10 0 10 0 12 2 C11 3 11 3 8.49609375 3.09765625 C6.98208984 3.08025391 6.98208984 3.08025391 5.4375 3.0625 C4.42558594 3.05347656 3.41367187 3.04445313 2.37109375 3.03515625 C1.58863281 3.02355469 0.80617188 3.01195312 0 3 C0 2.01 0 1.02 0 0 Z " fill="#6F66A5" transform="translate(17,24)"/>
<path d="M0 0 C2.3828125 -0.29296875 2.3828125 -0.29296875 5.125 -0.1875 C6.03507812 -0.16042969 6.94515625 -0.13335937 7.8828125 -0.10546875 C8.58148438 -0.07066406 9.28015625 -0.03585938 10 0 C9.01 1.485 9.01 1.485 8 3 C5.6171875 3.29296875 5.6171875 3.29296875 2.875 3.1875 C1.96492188 3.16042969 1.05484375 3.13335937 0.1171875 3.10546875 C-0.58148437 3.07066406 -1.28015625 3.03585938 -2 3 C-1.34 2.01 -0.68 1.02 0 0 Z " fill="#C53E66" transform="translate(28,44)"/>
<path d="M0 0 C1.8871875 0.0309375 1.8871875 0.0309375 3.8125 0.0625 C3.4825 1.0525 3.1525 2.0425 2.8125 3.0625 C-0.8175 3.0625 -4.4475 3.0625 -8.1875 3.0625 C-6.45706736 -0.39836529 -3.47359009 -0.0569441 0 0 Z " fill="#5773BA" transform="translate(38.1875,0.9375)"/>
<path d="M0 0 C3.67952474 4.90603299 3.29124516 6.17509683 3 12 C2.01 12.33 1.02 12.66 0 13 C0 8.71 0 4.42 0 0 Z " fill="#755494" transform="translate(11,33)"/>
<path d="M0 0 C3.3 0 6.6 0 10 0 C9.67 0.99 9.34 1.98 9 3 C6.03 3 3.06 3 0 3 C0 2.01 0 1.02 0 0 Z " fill="#87568B" transform="translate(17,34)"/>
<path d="M0 0 C2.64 0 5.28 0 8 0 C8.33 0.99 8.66 1.98 9 3 C5.7 3 2.4 3 -1 3 C-0.67 2.01 -0.34 1.02 0 0 Z " fill="#B93A62" transform="translate(32,39)"/>
<path d="M0 0 C1.6396875 0.0928125 1.6396875 0.0928125 3.3125 0.1875 C2.9825 1.1775 2.6525 2.1675 2.3125 3.1875 C-0.6575 3.1875 -3.6275 3.1875 -6.6875 3.1875 C-3.6875 0.1875 -3.6875 0.1875 0 0 Z " fill="#B03F78" transform="translate(37.6875,29.8125)"/>
<path d="M0 0 C0.99 0 1.98 0 3 0 C2.43628586 3.26954202 1.50037734 4.82575883 -1 7 C-1.66 6.34 -2.32 5.68 -3 5 C-1.6875 2.5 -1.6875 2.5 0 0 Z " fill="#486CC1" transform="translate(27,6)"/>
<path d="M0 0 C3.625 -0.1875 3.625 -0.1875 7 0 C6.01 1.485 6.01 1.485 5 3 C1.375 3.1875 1.375 3.1875 -2 3 C-1.34 2.01 -0.68 1.02 0 0 Z " fill="#985488" transform="translate(14,44)"/>
<path d="M0 0 C2.31 0 4.62 0 7 0 C6.67 0.99 6.34 1.98 6 3 C3.69 3 1.38 3 -1 3 C-0.67 2.01 -0.34 1.02 0 0 Z " fill="#AC4977" transform="translate(25,39)"/>
<path d="M0 0 C0.99 0.33 1.98 0.66 3 1 C3 2.32 3 3.64 3 5 C1.68 4.67 0.36 4.34 -1 4 C-1 1 -1 1 0 0 Z " fill="#4D5E9E" transform="translate(30,8)"/>
</svg>
